<svg width="35" height="35" viewBox="0 0 35 35" fill="none" xmlns="http://www.w3.org/2000/svg">
<rect width="35" height="35" rx="17.5" fill="#FFECEC"/>
<path d="M21.9545 15.5908C21.9545 15.0058 21.8393 14.4265 21.6155 13.8861C21.3916 13.3456 21.0635 12.8546 20.6498 12.4409C20.2362 12.0273 19.7451 11.6992 19.2047 11.4753C18.6642 11.2515 18.085 11.1362 17.5 11.1362C16.915 11.1362 16.3358 11.2515 15.7953 11.4753C15.2549 11.6992 14.7638 12.0273 14.3502 12.4409C13.9365 12.8546 13.6084 13.3456 13.3845 13.8861C13.1607 14.4265 13.0454 15.0058 13.0454 15.5908C13.0454 16.4734 13.3064 17.2943 13.7486 17.9867H13.7435C15.2454 20.338 17.5 23.8635 17.5 23.8635L21.2564 17.9867H21.252C21.7104 17.2716 21.9543 16.4402 21.9545 15.5908ZM17.5 17.4999C16.9937 17.4999 16.5081 17.2987 16.1501 16.9407C15.792 16.5827 15.5909 16.0971 15.5909 15.5908C15.5909 15.0845 15.792 14.5989 16.1501 14.2408C16.5081 13.8828 16.9937 13.6817 17.5 13.6817C18.0063 13.6817 18.4919 13.8828 18.8499 14.2408C19.2079 14.5989 19.4091 15.0845 19.4091 15.5908C19.4091 16.0971 19.2079 16.5827 18.8499 16.9407C18.4919 17.2987 18.0063 17.4999 17.5 17.4999Z" fill="#DC7000"/>
</svg>
