<svg width="35" height="35" viewBox="0 0 35 35" fill="none" xmlns="http://www.w3.org/2000/svg">
<rect width="35" height="35" rx="17.5" fill="#FFECEC"/>
<path d="M22.5911 11.7727H12.4093C12.0718 11.7727 11.748 11.9068 11.5094 12.1455C11.2707 12.3842 11.1366 12.7079 11.1366 13.0454V15.5909C11.1366 15.9284 11.2707 16.2522 11.5094 16.4908C11.748 16.7295 12.0718 16.8636 12.4093 16.8636H22.5911C22.9287 16.8636 23.2524 16.7295 23.4911 16.4908C23.7298 16.2522 23.8639 15.9284 23.8639 15.5909V13.0454C23.8639 12.7079 23.7298 12.3842 23.4911 12.1455C23.2524 11.9068 22.9287 11.7727 22.5911 11.7727ZM19.4093 14.3182C19.4093 14.6696 19.1244 14.9545 18.7729 14.9545C18.4215 14.9545 18.1366 14.6696 18.1366 14.3182C18.1366 13.9667 18.4215 13.6818 18.7729 13.6818C19.1244 13.6818 19.4093 13.9667 19.4093 14.3182ZM21.9548 14.3182C21.9548 14.6696 21.6699 14.9545 21.3184 14.9545C20.9669 14.9545 20.682 14.6696 20.682 14.3182C20.682 13.9667 20.9669 13.6818 21.3184 13.6818C21.6699 13.6818 21.9548 13.9667 21.9548 14.3182ZM22.5911 18.1363H12.4093C12.0718 18.1363 11.748 18.2704 11.5094 18.5091C11.2707 18.7478 11.1366 19.0715 11.1366 19.4091V21.9545C11.1366 22.2921 11.2707 22.6158 11.5094 22.8545C11.748 23.0932 12.0718 23.2273 12.4093 23.2273H22.5911C22.9287 23.2273 23.2524 23.0932 23.4911 22.8545C23.7298 22.6158 23.8639 22.2921 23.8639 21.9545V19.4091C23.8639 19.0715 23.7298 18.7478 23.4911 18.5091C23.2524 18.2704 22.9287 18.1363 22.5911 18.1363ZM19.4093 20.6818C19.4093 21.0332 19.1244 21.3182 18.7729 21.3182C18.4215 21.3182 18.1366 21.0332 18.1366 20.6818C18.1366 20.3303 18.4215 20.0454 18.7729 20.0454C19.1244 20.0454 19.4093 20.3303 19.4093 20.6818ZM21.9548 20.6818C21.9548 21.0332 21.6699 21.3182 21.3184 21.3182C20.9669 21.3182 20.682 21.0332 20.682 20.6818C20.682 20.3303 20.9669 20.0454 21.3184 20.0454C21.6699 20.0454 21.9548 20.3303 21.9548 20.6818Z" fill="#DC7000"/>
</svg>
